#!OML:ASF X:\für Bonn\!DataBase\2005_08_12_Daniel\c3d\Daniel.ASF
:FULLY-SPECIFIED
:DEGREES
263
root 0.0371269 10.2615 -14.9687 336.068 25.7688 0.804216
lowerback 72.2372 -5.31604 6.5066
upperback 10.7188 -0.0229367 -1.4171
thorax -8.92087 0.737016 -4.30827
lowerneck 2.27499 -5.81295 -3.45196
upperneck 13.7394 -8.38856 7.48934
head 4.19064 -3.89435 2.59554
rclavicle 4.6118e-014 8.74653e-015
rhumerus 61.8643 -63.9633 -161.464
rradius 8.7125
rwrist 98.3925
rhand -14.8302 -0.809636
rfingers 7.12502
rthumb 11.3285 -30.4837
lclavicle 4.6118e-014 8.74653e-015
lhumerus -11.6397 13.8301 91.8613
lradius 36.3557
lwrist -16.7019
lhand -11.9761 -9.04516
lfingers 7.12502
lthumb 14.08 20.4579
rfemur -28.5973 -54.5057 -31.9381
rtibia 130.917
rfoot -14.9093 -311.051
rtoes 6.0894
lfemur -58.7287 19.1264 -12.7113
ltibia 128.094
lfoot -30.7853 -36.3207
ltoes 7.93977
264
root 0.0523178 10.4066 -14.9743 336.489 25.6081 0.807065
lowerback 71.7608 -5.25082 6.50366
upperback 10.7532 -0.0251166 -1.42849
thorax -8.91924 0.725231 -4.3244
lowerneck 2.2147 -5.77103 -3.59805
upperneck 13.7954 -8.33543 7.49644
head 4.22059 -3.87293 2.62102
rclavicle -7.95139e-016 1.51076e-014
rhumerus 55.2633 -61.8512 -154.044
rradius 8.20394
rwrist 93.8257
rhand -14.8722 -0.861366
rfingers 7.12502
rthumb 11.288 -30.5376
lclavicle -7.95139e-016 1.51076e-014
lhumerus -11.7387 14.1394 91.7786
lradius 36.1899
lwrist -16.8026
lhand -12.102 -9.0213
lfingers 7.12502
lthumb 13.9587 20.4901
rfemur -30.7413 -53.0499 -28.1756
rtibia 129.665
rfoot -14.668 -312.52
rtoes 5.92136
lfemur -58.1363 18.1742 -13.2022
ltibia 126.899
lfoot -30.8025 -35.4785
ltoes 7.66551
265
root 0.0670251 10.5523 -14.9788 336.93 25.4708 0.82376
lowerback 71.2425 -5.17449 6.46947
upperback 10.8084 -0.0405839 -1.43987
thorax -8.89713 0.708454 -4.32241
lowerneck 2.05385 -5.73594 -3.68062
upperneck 13.8792 -8.28795 7.45452
head 4.27157 -3.85087 2.61757
rclavicle 4.77083e-015 -3.73715e-014
rhumerus 49.693 -59.3706 -147.667
rradius 7.67071
rwrist 89.2828
rhand -15.0445 -0.834667
rfingers 7.12502
rthumb 11.1218 -30.5199
lclavicle 4.77083e-015 -3.73715e-014
lhumerus -11.7979 14.4927 91.6848
lradius 35.9789
lwrist -16.9395
lhand -12.2698 -8.96821
lfingers 7.12502
lthumb 13.797 20.5543
rfemur -32.5525 -51.5597 -24.831
rtibia 128.406
rfoot -14.427 -313.924
rtoes 5.86541
lfemur -57.5427 17.2528 -13.6855
ltibia 125.679
lfoot -30.8045 -34.6851
ltoes 7.49762
266
root 0.0831533 10.6982 -14.9823 337.334 25.3303 0.820284
lowerback 70.7384 -5.112 6.4502
upperback 10.8493 -0.0589645 -1.45598
thorax -8.88823 0.690206 -4.33041
lowerneck 1.99576 -5.69658 -3.75345
upperneck 13.881 -8.23009 7.40639
head 4.27935 -3.82773 2.6151
rclavicle 2.38542e-014 -7.95139e-016
rhumerus 44.9416 -56.6917 -142.103
rradius 7.15619
rwrist 84.7328
rhand -15.3668 -0.612883
rfingers 7.12502
rthumb 10.811 -30.3146
lclavicle 2.38542e-014 -7.95139e-016
lhumerus -11.9047 14.8525 91.5644
lradius 35.774
lwrist -17.1071
lhand -12.3961 -8.90834
lfingers 7.12502
lthumb 13.6753 20.6224
rfemur -33.9759 -50.0621 -21.8852
rtibia 127.129
rfoot -14.336 -315.276
rtoes 5.76988
lfemur -56.8929 16.4001 -14.1098
ltibia 124.438
lfoot -30.8316 -33.9302
ltoes 7.30685
267
root 0.099525 10.8461 -14.984 337.748 25.1821 0.828166
lowerback 70.2065 -5.0177 6.41771
upperback 10.9001 -0.0527534 -1.46371
thorax -8.86656 0.68231 -4.33461
lowerneck 1.96544 -5.67114 -3.74992
upperneck 13.8181 -8.18579 7.33127
head 4.25961 -3.81081 2.59283
rclavicle 4.37326e-014 1.11319e-014
rhumerus 40.9819 -53.8214 -137.332
rradius 6.70544
rwrist 80.1708
rhand -15.8386 -0.240826
rfingers 7.12502
rthumb 10.3558 -29.9658
lclavicle 4.37326e-014 1.11319e-014
lhumerus -12.0098 15.2814 91.4513
lradius 35.5457
lwrist -17.4011
lhand -12.4587 -8.91323
lfingers 7.12502
lthumb 13.6149 20.6215
rfemur -35.1597 -48.5684 -19.2443
rtibia 125.829
rfoot -14.2512 -316.545
rtoes 5.63129
lfemur -56.2138 15.6102 -14.5062
ltibia 123.172
lfoot -30.8661 -33.2198
ltoes 7.12026
268
root 0.115628 10.9926 -14.9858 338.136 25.0509 0.803385
lowerback 69.6942 -4.95225 6.4079
upperback 10.9358 -0.0596365 -1.47817
thorax -8.85887 0.66899 -4.34965
lowerneck 1.90745 -5.64864 -3.71799
upperneck 13.7642 -8.14413 7.23613
head 4.24554 -3.79397 2.55878
rclavicle -1.74931e-014 -2.3059e-014
rhumerus 37.6059 -50.8145 -133.151
rradius 6.31651
rwrist 75.609
rhand -16.2724 0.261199
rfingers 7.12502
rthumb 9.93736 -29.4842
lclavicle -1.74931e-014 -2.3059e-014
lhumerus -12.1 15.7346 91.3311
lradius 35.2924
lwrist -17.689
lhand -12.5108 -8.92119
lfingers 7.12502
lthumb 13.5647 20.6169
rfemur -36.0723 -47.0979 -16.8646
rtibia 124.51
rfoot -14.2306 -317.772
rtoes 5.57762
lfemur -55.5429 14.8727 -14.845
ltibia 121.897
lfoot -30.9021 -32.5771
ltoes 6.83759
